<?xml version="1.0" encoding="UTF-8" standalone="no"?><!DOCTYPE svg PUBLIC "-//W3C//DTD SVG 1.1//EN" "http://www.w3.org/Graphics/SVG/1.1/DTD/svg11.dtd"><svg width="100%" height="100%" viewBox="0 0 146 175" version="1.1" xmlns="http://www.w3.org/2000/svg" xmlns:xlink="http://www.w3.org/1999/xlink" xml:space="preserve" xmlns:serif="http://www.serif.com/" style="fill-rule:evenodd;clip-rule:evenodd;stroke-miterlimit:2;"><g><path d="M131.611,135.59c-0,0 -0.546,-0.779 -1.459,-0.296c-0.925,0.492 -1.291,0.875 -0.741,1.367c0.55,0.483 3.662,1.742 4.858,2.421c1.187,0.675 4.125,2.329 4.946,3.875c0.825,1.558 1.921,4.762 1.921,6.312c-0,1.55 -0.825,4.846 -2.288,6.984c-1.467,2.133 -6.596,6.691 -11.362,8.341c-4.763,1.646 -11.359,3.684 -20.7,4.85c-9.35,1.163 -29.23,2.425 -33.446,2.521c-4.213,0.1 -20.525,-1.554 -30.146,-2.812c-9.621,-1.259 -20.796,-3.3 -26.667,-6.109c-5.858,-2.812 -13.096,-6.404 -11.808,-11.933c1.279,-5.529 2.75,-8.246 7.692,-10.187c4.941,-1.942 9.691,-2.171 10.904,-2.717c1.825,-0.825 2.471,-2.617 1.191,-3.008c-1.287,-0.388 -2.295,-0.388 -4.129,0.095c-1.825,0.492 -7.162,2.484 -8.975,3.305c-2.783,1.262 -4.591,2.095 -6.504,4.945c-1.175,1.755 -2.758,6.084 -2.837,8.538c-0.155,4.396 1.737,7.079 4.945,9.112c3.205,2.042 8.521,5.538 23.363,8.45c14.842,2.905 25.746,4.067 37.292,4.363c11.537,0.287 28.858,-0.296 40.587,-2.429c11.729,-2.134 22.721,-4.271 28.583,-9.988c5.863,-5.729 7.334,-9.416 6.871,-13.871c-0.454,-4.466 -2.196,-6.6 -4.487,-8.154c-2.288,-1.546 -5.409,-3.2 -5.409,-3.2l-2.195,-0.775Zm-21.713,-22.8c-0.767,0.104 -1.104,0.296 -1.558,1.463c-0.459,1.162 -1.559,4.458 -2.113,8.433c-0.546,3.979 -1.279,9.025 -1.733,11.742c-0.467,2.712 -1.196,7.079 -2.208,9.987c-1.005,2.913 -2.746,6.017 -4.484,7.284c-1.741,1.258 -5.954,3.104 -8.429,3.491c-2.475,0.384 -9.529,0.671 -11.546,0.579c-2.016,-0.1 -6.046,-0.1 -6.691,-0.1c-0.642,0 -1.28,0 -1.28,0.584c0,0.583 0.371,1.262 0.917,1.554c0.546,0.287 3.483,0.096 5.496,0.187c2.017,0.1 8.887,0.1 12.279,-0.383c3.388,-0.483 9.35,-1.75 11.638,-4.262c2.283,-2.53 4.762,-4.275 6.595,-13.388c1.834,-9.125 3.755,-19.792 4.121,-21.929c0.367,-2.133 0.825,-3.2 0.55,-3.688c-0.271,-0.479 -0.796,-1.645 -1.554,-1.554Zm-16.496,45.5c0,0 -0.458,0.675 -3.662,1.263c-3.209,0.583 -7.421,1.262 -12.279,0.966c-4.859,-0.287 -9.255,-0.483 -12.275,-1.066c-3.025,-0.579 -5.955,-0.875 -7.238,-1.163c-1.279,-0.291 -1.837,-0.971 -2.475,-0.775c-0.637,0.192 -1.1,0.679 -0.829,1.45c0.279,0.779 1.379,0.779 2.479,1.363c1.1,0.583 4.579,1.166 6.046,1.55c1.467,0.391 7.237,1.062 9.433,1.166c2.2,0.096 6.417,0.096 8.988,0.096c2.562,0 6.591,-0.679 7.871,-0.971c1.283,-0.291 2.662,-0.77 3.391,-1.454c0.738,-0.679 1.279,-0.321 1.279,-1.45c0.013,-1.137 -0.729,-0.975 -0.729,-0.975Zm22.692,-46.296c-0,0 -1.329,-0.112 -1.838,0.109c-0.512,0.212 -1.075,0.158 -0.866,0.754c0.204,0.596 0.712,1.296 1.329,1.508c0.608,0.225 3.112,-0.208 4.029,-0.05c0.913,0.159 2.7,0.05 4.279,0.429c1.584,0.384 4.642,0.921 5.513,2c0.862,1.08 1.429,1.571 1.729,2.759c0.312,1.187 0.512,1.454 0.112,2.75c-0.412,1.296 -2.245,4.754 -3.166,5.775c-0.921,1.029 -4.388,4.271 -5.463,4.979c-1.066,0.7 -4.637,3.508 -5.508,3.942c-0.867,0.429 -2.854,1.295 -3.825,1.62c-0.967,0.321 -1.579,0.375 -1.788,0.971c-0.2,0.592 0.159,1.184 0.971,1.563c0.817,0.383 3.117,-0.104 4.9,-1.075c1.784,-0.971 8.359,-5.779 10.863,-8c2.508,-2.209 6.579,-7.234 6.425,-10.471c-0.15,-3.25 -2.6,-5.946 -4.538,-7.133c-1.941,-1.188 -6.171,-2.109 -7.7,-2.321c-1.529,-0.221 -5.458,-0.109 -5.458,-0.109Zm-75.658,5.317c-0.446,0.171 -0.767,-0.475 -0.609,1.288c0.163,1.75 2.309,15.108 2.954,17.508c0.646,2.387 1.696,5.725 1.98,6.462c0.287,0.725 0.929,1.925 1.412,2.13c0.488,0.212 0.85,0.212 1.417,0.091c0.566,-0.129 0.729,-0.471 0.566,-1.112c-0.162,-0.646 -3.033,-8.563 -3.637,-12.413c-0.604,-3.854 -1.704,-11.171 -1.988,-12.025c-0.279,-0.858 -0.562,-1.291 -0.962,-1.546c-0.408,-0.258 -1.017,-0.429 -1.017,-0.429m17.375,-76.729c0,0 -5.412,0.821 -8.791,1.738c-3.38,0.925 -7.921,2.766 -9.467,4.504c-1.546,1.737 -3.667,3.891 -3.379,6.037c0.283,2.146 2.025,3.375 3.183,3.884c1.167,0.508 3.288,1.433 6.571,1.537c3.287,0.1 11.304,-0.925 14.392,-2.15c3.095,-1.229 8.212,-3.779 8.787,-5.012c0.588,-1.23 0.292,-4.196 -2.121,-5.934c-2.416,-1.737 -3.962,-2.866 -6.083,-3.679c-2.125,-0.821 -3.092,-0.925 -3.092,-0.925Zm14.779,-39.587c0,-0 0.584,0.208 0.488,0.72c-0.1,0.509 -0.488,0.917 -0.488,0.917c0,0 -2.704,0.925 -3.77,1.333c-1.059,0.405 -4.346,2.659 -5.113,3.684c-0.779,1.025 -0.2,3.375 1.058,5.112c1.255,1.738 4.738,3.375 10.334,6.546c5.608,3.175 6.087,1.738 9.762,5.729c3.667,3.988 1.059,7.059 -0.196,8.796c-1.25,1.738 -5.695,3.071 -8.595,3.783c-2.896,0.717 -13.238,2.355 -13.238,2.355c0,-0 2.321,0.925 4.442,2.554c2.133,1.641 3.671,2.971 4.546,5.833c0.87,2.867 -0.196,4.296 -1.355,5.425c-1.162,1.121 -5.212,3.267 -8.208,4.188c-2.996,0.92 -10.917,2.458 -10.917,2.458c0,-0 2.605,0.717 6.084,1.433c3.479,0.713 5.991,0.917 10.916,1.634c4.925,0.716 14.013,2.558 19.121,3.995c5.129,1.43 9.859,4.192 11.892,5.825c2.029,1.638 2.317,4.092 2.317,6.038c-0,1.942 -2.317,4.396 -5.605,6.133c-3.283,1.742 -8.208,2.25 -9.562,2.463c-1.35,0.2 -1.933,-0.109 -2.417,-0.625c-0.483,-0.509 -0.579,-0.713 0.096,-1.429c0.679,-0.717 1.833,-0.717 4.346,-1.025c2.517,-0.305 7.246,-1.734 9.083,-3.575c1.834,-1.842 0.775,-3.275 -0.096,-5.525c-0.87,-2.25 -5.512,-4.088 -9.37,-5.525c-3.863,-1.43 -9.371,-2.455 -12.846,-3.171c-3.479,-0.717 -16.234,-2.45 -20.004,-3.375c-3.763,-0.921 -9.463,-2.554 -11.396,-2.554c-1.934,-0 -13.425,3.275 -15.65,4.195c-2.221,0.917 -4.925,3.267 -5.704,5.213c-0.767,1.942 0.295,3.783 4.35,7.162c4.058,3.371 12.462,4.5 17.779,5.321c5.312,0.813 18.641,2.45 22.796,3.167c4.154,0.721 10.625,2.967 13.237,4.296c2.608,1.325 4.446,4.296 5.213,6.137c0.779,1.842 -0.192,4.709 -0.192,4.709c-0,-0 0.967,-0 2.512,0.2c1.55,0.204 4.159,0.312 8.205,0.62c4.066,0.305 6.095,1.121 9.283,1.938c3.192,0.821 2.862,1.792 4.1,1.183c0.671,-0.325 0.671,-0.641 0.729,-0.775c0.404,-1.016 0.242,-0.662 -0.237,-1.887c-0.492,-1.225 -1.984,-1.692 -4.592,-3.329c-2.608,-1.634 -8.021,-2.25 -11.017,-2.659c-2.991,-0.408 -8.4,-1.125 -8.4,-1.125l-1.837,-2.762l5.316,0.412c0,0 5.305,0.613 9.563,1.438c4.242,0.812 7.05,0.912 11.004,3.879c3.963,2.967 2.813,5.525 1.55,8.287c-1.25,2.759 -8.312,4.6 -12.358,5.521c-4.063,0.921 -15.75,1.846 -22.417,2.05c-6.667,0.204 -15.267,0 -24.825,-1.537c-9.567,-1.542 -14.208,-4.092 -15.85,-5.417c-1.642,-1.337 -2.317,-3.787 -2.029,-5.321c0.296,-1.541 3.579,-3.066 5.704,-4.091c2.121,-1.025 10.046,-2.767 13.908,-3.371c3.867,-0.617 10.625,-1.642 15.167,-1.946c4.538,-0.308 8.504,-0 8.504,-0c0,-0 1.546,0.712 2.413,1.221c0.866,0.508 1.254,1.637 1.254,1.637c-0,0 -4.925,0.1 -8.3,0.209c-3.383,0.095 -7.925,0.204 -11.788,0.712c-3.866,0.513 -11.595,1.742 -14.204,2.354c-2.608,0.617 -6.858,2.25 -8.304,2.867c-1.458,0.608 -1.837,1.529 -1.837,2.554c-0,1.021 1.45,1.633 2.991,2.558c1.546,0.917 2.417,0.509 2.417,0.509c-0,-0 0.867,-0.609 2.608,-1.534c1.738,-0.92 3.284,-1.02 5.121,-1.533c1.833,-0.517 8.4,-1.533 11.688,-1.846c3.287,-0.3 20.483,-0.816 20.483,-0.816l1.35,-1.225c-0,-0 0.958,-1.375 0.579,-3.275c-0.375,-1.9 -1.742,-2.663 -3.287,-4.088c-1.538,-1.433 -4.73,-2.458 -7.817,-3.375c-3.096,-0.921 -10.925,-1.946 -16.717,-2.658c-5.796,-0.721 -10.625,-0.925 -16.133,-1.85c-5.504,-0.917 -11.208,-3.267 -13.717,-4.804c-2.512,-1.53 -4.833,-3.58 -6.283,-6.75c-1.446,-3.175 1.646,-6.238 3.096,-7.875c1.446,-1.642 6.471,-3.68 9.854,-4.705c3.383,-1.029 5.792,-0.925 5.792,-0.925l0.195,-0.508c0,0 -2.316,-0.921 -3.766,-1.942c-1.45,-1.025 -1.838,-1.637 -2.325,-3.891c-0.475,-2.25 0.583,-3.984 1.741,-5.725c1.159,-1.742 4.063,-4.192 6.284,-5.425c2.221,-1.225 7.241,-2.35 9.754,-3.067c2.512,-0.712 1.258,-0.508 1.258,-0.508c0,-0 -2.991,-0.821 -4.158,-1.334c-1.158,-0.508 -3.379,-2.045 -4.154,-2.962c-0.767,-0.921 -1.934,-2.663 -2.121,-4.296c-0.196,-1.637 1.542,-3.887 2.317,-5.017c0.77,-1.125 2.608,-1.941 4.054,-2.454c1.45,-0.508 2.516,-0.2 2.516,-0.2c0,0 0.871,1.221 0.584,1.221c-0.296,0 -3.579,1.638 -4.642,3.075c-1.062,1.429 -2.317,2.963 -2.317,3.883c0,0.925 1.546,2.15 3.38,3.68c1.833,1.537 3.091,1.637 6.087,2.358c2.996,0.712 3.667,1.225 4.825,1.125c1.167,-0.1 8.121,-1.533 12.463,-2.15c4.354,-0.613 9.566,-2.146 10.825,-2.967c1.258,-0.816 1.833,-2.45 1.833,-4.091c-0,-1.634 -2.121,-3.684 -4.05,-4.605c-1.938,-0.916 -10.154,-5.316 -12.467,-6.545c-2.321,-1.225 -4.733,-3.584 -5.796,-5.009c-1.062,-1.437 -0.483,-3.375 -0.291,-5.116c0.191,-1.738 2.896,-3.784 5.408,-5.321c2.513,-1.529 6.183,-1.229 6.183,-1.229Z" style="fill:#1b3f95;fill-rule:nonzero;"/><path d="M131.611,135.59c-0,0 -0.546,-0.779 -1.459,-0.296c-0.925,0.492 -1.291,0.875 -0.741,1.367c0.55,0.483 3.662,1.742 4.858,2.421c1.187,0.675 4.125,2.329 4.946,3.875c0.825,1.558 1.921,4.762 1.921,6.312c-0,1.55 -0.825,4.846 -2.288,6.984c-1.467,2.133 -6.596,6.691 -11.362,8.341c-4.763,1.646 -11.359,3.684 -20.7,4.85c-9.35,1.163 -29.23,2.425 -33.446,2.521c-4.213,0.1 -20.525,-1.554 -30.146,-2.812c-9.621,-1.259 -20.796,-3.3 -26.667,-6.109c-5.858,-2.812 -13.096,-6.404 -11.808,-11.933c1.279,-5.529 2.75,-8.246 7.692,-10.187c4.941,-1.942 9.691,-2.171 10.904,-2.717c1.825,-0.825 2.471,-2.617 1.191,-3.008c-1.287,-0.388 -2.295,-0.388 -4.129,0.095c-1.825,0.492 -7.162,2.484 -8.975,3.305c-2.783,1.262 -4.591,2.095 -6.504,4.945c-1.175,1.755 -2.758,6.084 -2.837,8.538c-0.155,4.396 1.737,7.079 4.945,9.112c3.205,2.042 8.521,5.538 23.363,8.45c14.842,2.905 25.746,4.067 37.292,4.363c11.537,0.287 28.858,-0.296 40.587,-2.429c11.729,-2.134 22.721,-4.271 28.583,-9.988c5.863,-5.729 7.334,-9.416 6.871,-13.871c-0.454,-4.466 -2.196,-6.6 -4.487,-8.154c-2.288,-1.546 -5.409,-3.2 -5.409,-3.2l-2.195,-0.775Zm-21.713,-22.8c-0.767,0.104 -1.104,0.296 -1.558,1.463c-0.459,1.162 -1.559,4.458 -2.113,8.433c-0.546,3.979 -1.279,9.025 -1.733,11.742c-0.467,2.712 -1.196,7.079 -2.208,9.987c-1.005,2.913 -2.746,6.017 -4.484,7.284c-1.741,1.258 -5.954,3.104 -8.429,3.491c-2.475,0.384 -9.529,0.671 -11.546,0.579c-2.016,-0.1 -6.046,-0.1 -6.691,-0.1c-0.642,0 -1.28,0 -1.28,0.584c0,0.583 0.371,1.262 0.917,1.554c0.546,0.287 3.483,0.096 5.496,0.187c2.017,0.1 8.887,0.1 12.279,-0.383c3.388,-0.483 9.35,-1.75 11.638,-4.262c2.283,-2.53 4.762,-4.275 6.595,-13.388c1.834,-9.125 3.755,-19.792 4.121,-21.929c0.367,-2.133 0.825,-3.2 0.55,-3.688c-0.271,-0.479 -0.796,-1.645 -1.554,-1.554Zm-16.496,45.5c0,0 -0.458,0.675 -3.662,1.263c-3.209,0.583 -7.421,1.262 -12.279,0.966c-4.859,-0.287 -9.255,-0.483 -12.275,-1.066c-3.025,-0.579 -5.955,-0.875 -7.238,-1.163c-1.279,-0.291 -1.837,-0.971 -2.475,-0.775c-0.637,0.192 -1.1,0.679 -0.829,1.45c0.279,0.779 1.379,0.779 2.479,1.363c1.1,0.583 4.579,1.166 6.046,1.55c1.467,0.391 7.237,1.062 9.433,1.166c2.2,0.096 6.417,0.096 8.988,0.096c2.562,0 6.591,-0.679 7.871,-0.971c1.283,-0.291 2.662,-0.77 3.391,-1.454c0.738,-0.679 1.279,-0.321 1.279,-1.45c0.013,-1.137 -0.729,-0.975 -0.729,-0.975Zm22.692,-46.296c-0,0 -1.329,-0.112 -1.838,0.109c-0.512,0.212 -1.075,0.158 -0.866,0.754c0.204,0.596 0.712,1.296 1.329,1.508c0.608,0.225 3.112,-0.208 4.029,-0.05c0.913,0.159 2.7,0.05 4.279,0.429c1.584,0.384 4.642,0.921 5.513,2c0.862,1.08 1.429,1.571 1.729,2.759c0.312,1.187 0.512,1.454 0.112,2.75c-0.412,1.296 -2.245,4.754 -3.166,5.775c-0.921,1.029 -4.388,4.271 -5.463,4.979c-1.066,0.7 -4.637,3.508 -5.508,3.942c-0.867,0.429 -2.854,1.295 -3.825,1.62c-0.967,0.321 -1.579,0.375 -1.788,0.971c-0.2,0.592 0.159,1.184 0.971,1.563c0.817,0.383 3.117,-0.104 4.9,-1.075c1.784,-0.971 8.359,-5.779 10.863,-8c2.508,-2.209 6.579,-7.234 6.425,-10.471c-0.15,-3.25 -2.6,-5.946 -4.538,-7.133c-1.941,-1.188 -6.171,-2.109 -7.7,-2.321c-1.529,-0.221 -5.458,-0.109 -5.458,-0.109Zm-75.658,5.317c-0.446,0.171 -0.767,-0.475 -0.609,1.288c0.163,1.75 2.309,15.108 2.954,17.508c0.646,2.387 1.696,5.725 1.98,6.462c0.287,0.725 0.929,1.925 1.412,2.13c0.488,0.212 0.85,0.212 1.417,0.091c0.566,-0.129 0.729,-0.471 0.566,-1.112c-0.162,-0.646 -3.033,-8.563 -3.637,-12.413c-0.604,-3.854 -1.704,-11.171 -1.988,-12.025c-0.279,-0.858 -0.562,-1.291 -0.962,-1.546c-0.408,-0.258 -1.017,-0.429 -1.017,-0.429m17.375,-76.729c0,0 -5.412,0.821 -8.791,1.738c-3.38,0.925 -7.921,2.766 -9.467,4.504c-1.546,1.737 -3.667,3.891 -3.379,6.037c0.283,2.146 2.025,3.375 3.183,3.884c1.167,0.508 3.288,1.433 6.571,1.537c3.287,0.1 11.304,-0.925 14.392,-2.15c3.095,-1.229 8.212,-3.779 8.787,-5.012c0.588,-1.23 0.292,-4.196 -2.121,-5.934c-2.416,-1.737 -3.962,-2.866 -6.083,-3.679c-2.125,-0.821 -3.092,-0.925 -3.092,-0.925Zm14.779,-39.587c0,-0 0.584,0.208 0.488,0.72c-0.1,0.509 -0.488,0.917 -0.488,0.917c0,0 -2.704,0.925 -3.77,1.333c-1.059,0.405 -4.346,2.659 -5.113,3.684c-0.779,1.025 -0.2,3.375 1.058,5.112c1.255,1.738 4.738,3.375 10.334,6.546c5.608,3.175 6.087,1.738 9.762,5.729c3.667,3.988 1.059,7.059 -0.196,8.796c-1.25,1.738 -5.695,3.071 -8.595,3.783c-2.896,0.717 -13.238,2.355 -13.238,2.355c0,-0 2.321,0.925 4.442,2.554c2.133,1.641 3.671,2.971 4.546,5.833c0.87,2.867 -0.196,4.296 -1.355,5.425c-1.162,1.121 -5.212,3.267 -8.208,4.188c-2.996,0.92 -10.917,2.458 -10.917,2.458c0,-0 2.605,0.717 6.084,1.433c3.479,0.713 5.991,0.917 10.916,1.634c4.925,0.716 14.013,2.558 19.121,3.995c5.129,1.43 9.859,4.192 11.892,5.825c2.029,1.638 2.317,4.092 2.317,6.038c-0,1.942 -2.317,4.396 -5.605,6.133c-3.283,1.742 -8.208,2.25 -9.562,2.463c-1.35,0.2 -1.933,-0.109 -2.417,-0.625c-0.483,-0.509 -0.579,-0.713 0.096,-1.429c0.679,-0.717 1.833,-0.717 4.346,-1.025c2.517,-0.305 7.246,-1.734 9.083,-3.575c1.834,-1.842 0.775,-3.275 -0.096,-5.525c-0.87,-2.25 -5.512,-4.088 -9.37,-5.525c-3.863,-1.43 -9.371,-2.455 -12.846,-3.171c-3.479,-0.717 -16.234,-2.45 -20.004,-3.375c-3.763,-0.921 -9.463,-2.554 -11.396,-2.554c-1.934,-0 -13.425,3.275 -15.65,4.195c-2.221,0.917 -4.925,3.267 -5.704,5.213c-0.767,1.942 0.295,3.783 4.35,7.162c4.058,3.371 12.462,4.5 17.779,5.321c5.312,0.813 18.641,2.45 22.796,3.167c4.154,0.721 10.625,2.967 13.237,4.296c2.608,1.325 4.446,4.296 5.213,6.137c0.779,1.842 -0.192,4.709 -0.192,4.709c-0,-0 0.967,-0 2.512,0.2c1.55,0.204 4.159,0.312 8.205,0.62c4.066,0.305 6.095,1.121 9.283,1.938c3.192,0.821 2.862,1.792 4.1,1.183c0.671,-0.325 0.671,-0.641 0.729,-0.775c0.404,-1.016 0.242,-0.662 -0.237,-1.887c-0.492,-1.225 -1.984,-1.692 -4.592,-3.329c-2.608,-1.634 -8.021,-2.25 -11.017,-2.659c-2.991,-0.408 -8.4,-1.125 -8.4,-1.125l-1.837,-2.762l5.316,0.412c0,0 5.305,0.613 9.563,1.438c4.242,0.812 7.05,0.912 11.004,3.879c3.963,2.967 2.813,5.525 1.55,8.287c-1.25,2.759 -8.312,4.6 -12.358,5.521c-4.063,0.921 -15.75,1.846 -22.417,2.05c-6.667,0.204 -15.267,0 -24.825,-1.537c-9.567,-1.542 -14.208,-4.092 -15.85,-5.417c-1.642,-1.337 -2.317,-3.787 -2.029,-5.321c0.296,-1.541 3.579,-3.066 5.704,-4.091c2.121,-1.025 10.046,-2.767 13.908,-3.371c3.867,-0.617 10.625,-1.642 15.167,-1.946c4.538,-0.308 8.504,-0 8.504,-0c0,-0 1.546,0.712 2.413,1.221c0.866,0.508 1.254,1.637 1.254,1.637c-0,0 -4.925,0.1 -8.3,0.209c-3.383,0.095 -7.925,0.204 -11.788,0.712c-3.866,0.513 -11.595,1.742 -14.204,2.354c-2.608,0.617 -6.858,2.25 -8.304,2.867c-1.458,0.608 -1.837,1.529 -1.837,2.554c-0,1.021 1.45,1.633 2.991,2.558c1.546,0.917 2.417,0.509 2.417,0.509c-0,-0 0.867,-0.609 2.608,-1.534c1.738,-0.92 3.284,-1.02 5.121,-1.533c1.833,-0.517 8.4,-1.533 11.688,-1.846c3.287,-0.3 20.483,-0.816 20.483,-0.816l1.35,-1.225c-0,-0 0.958,-1.375 0.579,-3.275c-0.375,-1.9 -1.742,-2.663 -3.287,-4.088c-1.538,-1.433 -4.73,-2.458 -7.817,-3.375c-3.096,-0.921 -10.925,-1.946 -16.717,-2.658c-5.796,-0.721 -10.625,-0.925 -16.133,-1.85c-5.504,-0.917 -11.208,-3.267 -13.717,-4.804c-2.512,-1.53 -4.833,-3.58 -6.283,-6.75c-1.446,-3.175 1.646,-6.238 3.096,-7.875c1.446,-1.642 6.471,-3.68 9.854,-4.705c3.383,-1.029 5.792,-0.925 5.792,-0.925l0.195,-0.508c0,0 -2.316,-0.921 -3.766,-1.942c-1.45,-1.025 -1.838,-1.637 -2.325,-3.891c-0.475,-2.25 0.583,-3.984 1.741,-5.725c1.159,-1.742 4.063,-4.192 6.284,-5.425c2.221,-1.225 7.241,-2.35 9.754,-3.067c2.512,-0.712 1.258,-0.508 1.258,-0.508c0,-0 -2.991,-0.821 -4.158,-1.334c-1.158,-0.508 -3.379,-2.045 -4.154,-2.962c-0.767,-0.921 -1.934,-2.663 -2.121,-4.296c-0.196,-1.637 1.542,-3.887 2.317,-5.017c0.77,-1.125 2.608,-1.941 4.054,-2.454c1.45,-0.508 2.516,-0.2 2.516,-0.2c0,0 0.871,1.221 0.584,1.221c-0.296,0 -3.579,1.638 -4.642,3.075c-1.062,1.429 -2.317,2.963 -2.317,3.883c0,0.925 1.546,2.15 3.38,3.68c1.833,1.537 3.091,1.637 6.087,2.358c2.996,0.712 3.667,1.225 4.825,1.125c1.167,-0.1 8.121,-1.533 12.463,-2.15c4.354,-0.613 9.566,-2.146 10.825,-2.967c1.258,-0.816 1.833,-2.45 1.833,-4.091c-0,-1.634 -2.121,-3.684 -4.05,-4.605c-1.938,-0.916 -10.154,-5.316 -12.467,-6.545c-2.321,-1.225 -4.733,-3.584 -5.796,-5.009c-1.062,-1.437 -0.483,-3.375 -0.291,-5.116c0.191,-1.738 2.896,-3.784 5.408,-5.321c2.513,-1.529 6.183,-1.229 6.183,-1.229Z" style="fill:none;stroke:#1b3f95;stroke-width:1.04px;"/></g></svg>