<?xml version="1.0" encoding="UTF-8" standalone="no"?>
<!DOCTYPE svg PUBLIC "-//W3C//DTD SVG 1.1//EN" "http://www.w3.org/Graphics/SVG/1.1/DTD/svg11.dtd">
<svg width="100%" height="100%" viewBox="0 0 662 449" version="1.1" xmlns="http://www.w3.org/2000/svg" xmlns:xlink="http://www.w3.org/1999/xlink" xml:space="preserve" xmlns:serif="http://www.serif.com/" style="fill-rule:evenodd;clip-rule:evenodd;stroke-linejoin:round;stroke-miterlimit:2;">
    <g id="ArtBoard1" transform="matrix(1,0,0,1,-23.622,-47.2441)">
        <rect x="23.622" y="47.244" width="661.417" height="448.819" style="fill:none;"/>
        <g transform="matrix(2.17143,0,0,2.17143,-1230.77,-1791.03)">
            <g transform="matrix(362.752,0,0,362.752,566.929,1039.37)">
                <path d="M0.136,0.009C0.111,0.009 0.093,0.002 0.08,-0.011C0.067,-0.024 0.06,-0.043 0.06,-0.068L0.06,-0.423C0.06,-0.448 0.067,-0.467 0.08,-0.48C0.093,-0.493 0.111,-0.499 0.134,-0.499C0.158,-0.499 0.176,-0.493 0.189,-0.48C0.201,-0.467 0.208,-0.448 0.208,-0.423L0.208,-0.359L0.197,-0.399C0.21,-0.43 0.231,-0.455 0.259,-0.473C0.287,-0.492 0.32,-0.501 0.358,-0.501C0.396,-0.501 0.427,-0.492 0.453,-0.474C0.478,-0.456 0.496,-0.428 0.507,-0.391L0.493,-0.391C0.508,-0.425 0.53,-0.452 0.561,-0.472C0.591,-0.491 0.626,-0.501 0.665,-0.501C0.703,-0.501 0.734,-0.494 0.758,-0.479C0.783,-0.464 0.801,-0.441 0.813,-0.411C0.825,-0.38 0.831,-0.341 0.831,-0.295L0.831,-0.068C0.831,-0.043 0.825,-0.024 0.812,-0.011C0.799,0.002 0.78,0.009 0.756,0.009C0.731,0.009 0.713,0.002 0.7,-0.011C0.687,-0.024 0.68,-0.043 0.68,-0.068L0.68,-0.29C0.68,-0.323 0.675,-0.347 0.665,-0.362C0.654,-0.377 0.637,-0.384 0.612,-0.384C0.583,-0.384 0.561,-0.374 0.545,-0.354C0.529,-0.334 0.521,-0.306 0.521,-0.269L0.521,-0.068C0.521,-0.043 0.515,-0.024 0.502,-0.011C0.489,0.002 0.47,0.009 0.446,0.009C0.422,0.009 0.403,0.002 0.39,-0.011C0.377,-0.024 0.37,-0.043 0.37,-0.068L0.37,-0.29C0.37,-0.323 0.365,-0.347 0.354,-0.362C0.344,-0.377 0.327,-0.384 0.302,-0.384C0.274,-0.384 0.251,-0.374 0.235,-0.354C0.219,-0.334 0.211,-0.306 0.211,-0.269L0.211,-0.068C0.211,-0.017 0.186,0.009 0.136,0.009Z" style="fill:rgb(150,150,150);fill-rule:nonzero;"/>
            </g>
            <g transform="matrix(362.752,0,0,362.752,889.494,1039.37)">
            </g>
        </g>
    </g>
</svg>
